<svg xmlns="http://www.w3.org/2000/svg" viewBox="0 0 1080 1080"><defs><style>.a{fill:#47ff00;}.b{fill:#ffba00;}.c{fill:#ff0;}.d{fill:#ff7f00;}.e{fill:#ff0c00;}.f{fill:#be0002;}.g{fill:#0094ff;}</style></defs><polygon class="a" points="642 421 708 349 851 589 642 421"/><polygon class="b" points="847 489 1051 637 979 715 847 489"/><polygon class="c" points="674 613 877 668 769 814 674 613"/><polygon class="d" points="479 693 584 669 662 924 479 693"/><polygon class="e" points="685 811 755 1051 787 924 685 811"/><polygon class="f" points="850 864 923 765 955 840 850 864"/><path class="g" d="M807,589,602,422l60-73L513,305l-93,35L80,26,340,390l-76,94L164,574,104,682l38,83,59,28,111-47,82-21,76-57,109-23L687,747,602,543ZM326,535l44-52,25,22Z"/></svg>